G75*
G70*
%OFA0B0*%
%FSLAX24Y24*%
%IPPOS*%
%LPD*%
%AMOC8*
5,1,8,0,0,1.08239X$1,22.5*
%
%ADD10C,0.0000*%
%ADD11R,0.0630X0.0591*%
%ADD12R,0.0472X0.0472*%
%ADD13C,0.0740*%
%ADD14R,0.0709X0.0630*%
%ADD15R,0.0394X0.0433*%
%ADD16R,0.0394X0.0551*%
%ADD17R,0.0291X0.1024*%
%ADD18C,0.0660*%
%ADD19C,0.0100*%
%ADD20C,0.0360*%
D10*
X000100Y000264D02*
X000100Y007744D01*
X016635Y007744D01*
X016635Y000264D01*
X000100Y000264D01*
X001045Y001838D02*
X001047Y001888D01*
X001053Y001938D01*
X001063Y001987D01*
X001077Y002035D01*
X001094Y002082D01*
X001115Y002127D01*
X001140Y002171D01*
X001168Y002212D01*
X001200Y002251D01*
X001234Y002288D01*
X001271Y002322D01*
X001311Y002352D01*
X001353Y002379D01*
X001397Y002403D01*
X001443Y002424D01*
X001490Y002440D01*
X001538Y002453D01*
X001588Y002462D01*
X001637Y002467D01*
X001688Y002468D01*
X001738Y002465D01*
X001787Y002458D01*
X001836Y002447D01*
X001884Y002432D01*
X001930Y002414D01*
X001975Y002392D01*
X002018Y002366D01*
X002059Y002337D01*
X002098Y002305D01*
X002134Y002270D01*
X002166Y002232D01*
X002196Y002192D01*
X002223Y002149D01*
X002246Y002105D01*
X002265Y002059D01*
X002281Y002011D01*
X002293Y001962D01*
X002301Y001913D01*
X002305Y001863D01*
X002305Y001813D01*
X002301Y001763D01*
X002293Y001714D01*
X002281Y001665D01*
X002265Y001617D01*
X002246Y001571D01*
X002223Y001527D01*
X002196Y001484D01*
X002166Y001444D01*
X002134Y001406D01*
X002098Y001371D01*
X002059Y001339D01*
X002018Y001310D01*
X001975Y001284D01*
X001930Y001262D01*
X001884Y001244D01*
X001836Y001229D01*
X001787Y001218D01*
X001738Y001211D01*
X001688Y001208D01*
X001637Y001209D01*
X001588Y001214D01*
X001538Y001223D01*
X001490Y001236D01*
X001443Y001252D01*
X001397Y001273D01*
X001353Y001297D01*
X001311Y001324D01*
X001271Y001354D01*
X001234Y001388D01*
X001200Y001425D01*
X001168Y001464D01*
X001140Y001505D01*
X001115Y001549D01*
X001094Y001594D01*
X001077Y001641D01*
X001063Y001689D01*
X001053Y001738D01*
X001047Y001788D01*
X001045Y001838D01*
X014431Y001838D02*
X014433Y001888D01*
X014439Y001938D01*
X014449Y001987D01*
X014463Y002035D01*
X014480Y002082D01*
X014501Y002127D01*
X014526Y002171D01*
X014554Y002212D01*
X014586Y002251D01*
X014620Y002288D01*
X014657Y002322D01*
X014697Y002352D01*
X014739Y002379D01*
X014783Y002403D01*
X014829Y002424D01*
X014876Y002440D01*
X014924Y002453D01*
X014974Y002462D01*
X015023Y002467D01*
X015074Y002468D01*
X015124Y002465D01*
X015173Y002458D01*
X015222Y002447D01*
X015270Y002432D01*
X015316Y002414D01*
X015361Y002392D01*
X015404Y002366D01*
X015445Y002337D01*
X015484Y002305D01*
X015520Y002270D01*
X015552Y002232D01*
X015582Y002192D01*
X015609Y002149D01*
X015632Y002105D01*
X015651Y002059D01*
X015667Y002011D01*
X015679Y001962D01*
X015687Y001913D01*
X015691Y001863D01*
X015691Y001813D01*
X015687Y001763D01*
X015679Y001714D01*
X015667Y001665D01*
X015651Y001617D01*
X015632Y001571D01*
X015609Y001527D01*
X015582Y001484D01*
X015552Y001444D01*
X015520Y001406D01*
X015484Y001371D01*
X015445Y001339D01*
X015404Y001310D01*
X015361Y001284D01*
X015316Y001262D01*
X015270Y001244D01*
X015222Y001229D01*
X015173Y001218D01*
X015124Y001211D01*
X015074Y001208D01*
X015023Y001209D01*
X014974Y001214D01*
X014924Y001223D01*
X014876Y001236D01*
X014829Y001252D01*
X014783Y001273D01*
X014739Y001297D01*
X014697Y001324D01*
X014657Y001354D01*
X014620Y001388D01*
X014586Y001425D01*
X014554Y001464D01*
X014526Y001505D01*
X014501Y001549D01*
X014480Y001594D01*
X014463Y001641D01*
X014449Y001689D01*
X014439Y001738D01*
X014433Y001788D01*
X014431Y001838D01*
D11*
X012502Y003827D03*
D12*
X012895Y005106D03*
X012108Y005106D03*
D13*
X011848Y006193D02*
X011848Y006933D01*
X010848Y006933D02*
X010848Y006193D01*
X009848Y006193D02*
X009848Y006933D01*
X008848Y006933D02*
X008848Y006193D01*
X007848Y006193D02*
X007848Y006933D01*
X006848Y006933D02*
X006848Y006193D01*
X005848Y006193D02*
X005848Y006933D01*
X004848Y006933D02*
X004848Y006193D01*
X003848Y006193D02*
X003848Y006933D01*
X002848Y006933D02*
X002848Y006193D01*
X001848Y006193D02*
X001848Y006933D01*
X000848Y006933D02*
X000848Y006193D01*
X012848Y006193D02*
X012848Y006933D01*
X013848Y006933D02*
X013848Y006193D01*
X014848Y006193D02*
X014848Y006933D01*
X015848Y006933D02*
X015848Y006193D01*
D14*
X012502Y002390D03*
X012502Y001287D03*
D15*
X004372Y001445D03*
X003702Y001445D03*
D16*
X003663Y002980D03*
X004411Y002980D03*
X004037Y003846D03*
D17*
X007383Y002823D03*
X007883Y002823D03*
X008383Y002823D03*
X008883Y002823D03*
X009383Y002823D03*
X009383Y001248D03*
X008883Y001248D03*
X008383Y001248D03*
X007883Y001248D03*
X007383Y001248D03*
D18*
X007368Y004594D03*
X008368Y004594D03*
X009368Y004594D03*
D19*
X008958Y004004D02*
X010730Y004004D01*
X010730Y006563D01*
X010848Y006563D01*
X011714Y006563D02*
X011848Y006563D01*
X011911Y006563D01*
X011911Y006169D01*
X012895Y005185D01*
X012895Y005106D01*
X012502Y004594D02*
X012108Y004988D01*
X012108Y005106D01*
X013289Y006169D02*
X012895Y006563D01*
X012848Y006563D01*
X013289Y006169D02*
X013289Y003020D01*
X013486Y002823D01*
X012502Y003216D02*
X012502Y002429D01*
X012502Y002390D01*
X011714Y002232D02*
X011714Y006563D01*
X015454Y006169D02*
X015454Y004201D01*
X012502Y001248D01*
X012502Y001287D01*
X012502Y001445D01*
X011714Y002232D01*
X009746Y001642D02*
X009746Y003610D01*
X009352Y003413D02*
X009155Y003610D01*
X008958Y004004D02*
X008761Y003807D01*
X008761Y002823D01*
X008883Y002823D01*
X009352Y002823D02*
X009383Y002823D01*
X009352Y002823D02*
X009352Y003413D01*
X008383Y002823D02*
X008368Y002823D01*
X008171Y003020D01*
X008171Y003413D01*
X007580Y004004D01*
X006006Y004004D01*
X006006Y006563D01*
X005848Y006563D01*
X005021Y006563D02*
X004848Y006563D01*
X005021Y006563D02*
X005021Y003807D01*
X007383Y003807D01*
X007777Y003413D01*
X007777Y002823D01*
X007883Y002823D01*
X007383Y002823D02*
X004824Y002823D01*
X004824Y005382D01*
X004037Y006169D01*
X004037Y006563D01*
X003848Y006563D01*
X002856Y006563D02*
X002856Y006366D01*
X004234Y004988D01*
X004037Y004004D02*
X004037Y003846D01*
X004037Y004004D02*
X000887Y004004D01*
X000887Y006563D01*
X000848Y006563D01*
X002848Y006563D02*
X002856Y006563D01*
X003663Y002980D02*
X003840Y002823D01*
X003840Y001445D01*
X003702Y001445D01*
X004372Y001445D02*
X004431Y001445D01*
X006990Y001445D01*
X006990Y001838D01*
X007187Y002035D01*
X007777Y002035D01*
X007777Y001248D01*
X007883Y001248D01*
X008171Y001445D02*
X008171Y002035D01*
X008958Y001838D02*
X009155Y002035D01*
X008958Y001838D02*
X008958Y001248D01*
X008883Y001248D01*
X009352Y001248D02*
X009383Y001248D01*
X009352Y001248D02*
X009746Y001642D01*
X008383Y001248D02*
X008368Y001248D01*
X008171Y001445D01*
X007383Y001248D02*
X007383Y001051D01*
X006793Y001051D01*
X004037Y001051D01*
X004037Y002626D01*
X004234Y002823D01*
X004411Y002980D01*
X015454Y006169D02*
X015848Y006563D01*
D20*
X012502Y004594D03*
X012502Y003216D03*
X013486Y002823D03*
X009746Y003610D03*
X009155Y003610D03*
X009155Y002035D03*
X008171Y002035D03*
X006793Y001051D03*
X004234Y004988D03*
M02*
