G75*
G70*
%OFA0B0*%
%FSLAX24Y24*%
%IPPOS*%
%LPD*%
%AMOC8*
5,1,8,0,0,1.08239X$1,22.5*
%
%ADD10C,0.0000*%
D10*
X000100Y000264D02*
X000100Y007744D01*
X016635Y007744D01*
X016635Y000264D01*
X000100Y000264D01*
X001045Y001838D02*
X001047Y001888D01*
X001053Y001938D01*
X001063Y001987D01*
X001077Y002035D01*
X001094Y002082D01*
X001115Y002127D01*
X001140Y002171D01*
X001168Y002212D01*
X001200Y002251D01*
X001234Y002288D01*
X001271Y002322D01*
X001311Y002352D01*
X001353Y002379D01*
X001397Y002403D01*
X001443Y002424D01*
X001490Y002440D01*
X001538Y002453D01*
X001588Y002462D01*
X001637Y002467D01*
X001688Y002468D01*
X001738Y002465D01*
X001787Y002458D01*
X001836Y002447D01*
X001884Y002432D01*
X001930Y002414D01*
X001975Y002392D01*
X002018Y002366D01*
X002059Y002337D01*
X002098Y002305D01*
X002134Y002270D01*
X002166Y002232D01*
X002196Y002192D01*
X002223Y002149D01*
X002246Y002105D01*
X002265Y002059D01*
X002281Y002011D01*
X002293Y001962D01*
X002301Y001913D01*
X002305Y001863D01*
X002305Y001813D01*
X002301Y001763D01*
X002293Y001714D01*
X002281Y001665D01*
X002265Y001617D01*
X002246Y001571D01*
X002223Y001527D01*
X002196Y001484D01*
X002166Y001444D01*
X002134Y001406D01*
X002098Y001371D01*
X002059Y001339D01*
X002018Y001310D01*
X001975Y001284D01*
X001930Y001262D01*
X001884Y001244D01*
X001836Y001229D01*
X001787Y001218D01*
X001738Y001211D01*
X001688Y001208D01*
X001637Y001209D01*
X001588Y001214D01*
X001538Y001223D01*
X001490Y001236D01*
X001443Y001252D01*
X001397Y001273D01*
X001353Y001297D01*
X001311Y001324D01*
X001271Y001354D01*
X001234Y001388D01*
X001200Y001425D01*
X001168Y001464D01*
X001140Y001505D01*
X001115Y001549D01*
X001094Y001594D01*
X001077Y001641D01*
X001063Y001689D01*
X001053Y001738D01*
X001047Y001788D01*
X001045Y001838D01*
X014431Y001838D02*
X014433Y001888D01*
X014439Y001938D01*
X014449Y001987D01*
X014463Y002035D01*
X014480Y002082D01*
X014501Y002127D01*
X014526Y002171D01*
X014554Y002212D01*
X014586Y002251D01*
X014620Y002288D01*
X014657Y002322D01*
X014697Y002352D01*
X014739Y002379D01*
X014783Y002403D01*
X014829Y002424D01*
X014876Y002440D01*
X014924Y002453D01*
X014974Y002462D01*
X015023Y002467D01*
X015074Y002468D01*
X015124Y002465D01*
X015173Y002458D01*
X015222Y002447D01*
X015270Y002432D01*
X015316Y002414D01*
X015361Y002392D01*
X015404Y002366D01*
X015445Y002337D01*
X015484Y002305D01*
X015520Y002270D01*
X015552Y002232D01*
X015582Y002192D01*
X015609Y002149D01*
X015632Y002105D01*
X015651Y002059D01*
X015667Y002011D01*
X015679Y001962D01*
X015687Y001913D01*
X015691Y001863D01*
X015691Y001813D01*
X015687Y001763D01*
X015679Y001714D01*
X015667Y001665D01*
X015651Y001617D01*
X015632Y001571D01*
X015609Y001527D01*
X015582Y001484D01*
X015552Y001444D01*
X015520Y001406D01*
X015484Y001371D01*
X015445Y001339D01*
X015404Y001310D01*
X015361Y001284D01*
X015316Y001262D01*
X015270Y001244D01*
X015222Y001229D01*
X015173Y001218D01*
X015124Y001211D01*
X015074Y001208D01*
X015023Y001209D01*
X014974Y001214D01*
X014924Y001223D01*
X014876Y001236D01*
X014829Y001252D01*
X014783Y001273D01*
X014739Y001297D01*
X014697Y001324D01*
X014657Y001354D01*
X014620Y001388D01*
X014586Y001425D01*
X014554Y001464D01*
X014526Y001505D01*
X014501Y001549D01*
X014480Y001594D01*
X014463Y001641D01*
X014449Y001689D01*
X014439Y001738D01*
X014433Y001788D01*
X014431Y001838D01*
M02*
