%
M48
M72
T01C0.0240
T02C0.0354
T03C0.0440
T04C0.1260
%
T01
X6793Y1051
X8171Y2035
X9155Y2035
X9155Y3610
X9746Y3610
X12502Y3216
X13486Y2823
X12502Y4594
X4234Y4988
T02
X7368Y4594
X8368Y4594
X9368Y4594
T03
X9848Y6563
X8848Y6563
X7848Y6563
X6848Y6563
X5848Y6563
X4848Y6563
X3848Y6563
X2848Y6563
X1848Y6563
X848Y6563
X10848Y6563
X11848Y6563
X12848Y6563
X13848Y6563
X14848Y6563
X15848Y6563
T04
X1675Y1838
X15061Y1838
M30
